<?xml version="1.0" encoding="UTF-8" standalone="no"?>
<svg
   width="1898.8232"
   height="404.88"
   viewBox="0 0 1898.8232 404.88"
   version="1.1"
   id="svg4"
   xmlns="http://www.w3.org/2000/svg"
   xmlns:svg="http://www.w3.org/2000/svg">
  <defs
     id="defs8" />
  <g
     aria-label="AYO"
     id="ayo"
     style="font-weight:700;font-size:560px;font-family:Ubuntu;fill:#173b8f"
     transform="translate(-105.6,-162.96)">
    <path
       d="m 105.6,560 q 29.68,-82.88 54.88,-150.08 25.2,-67.76 49.28,-125.44 24.64,-58.24 50.96,-112.56 h 72.24 q 19.6,40.88 38.08,84 18.48,42.56 36.96,89.04 18.48,46.48 38.08,99.68 20.16,53.2 42,115.36 h -81.76 q -7.28,-22.4 -15.68,-44.24 -7.84,-22.4 -15.12,-44.8 h -159.6 q -7.84,22.4 -16.24,44.8 -7.84,21.84 -14.56,44.24 z M 234.4,409.92 H 356.48 Q 347.52,383.6 338.56,360.08 329.6,336 321.2,315.84 q -7.84,-20.72 -14.56,-36.96 -6.72,-16.8 -11.76,-29.12 -4.48,12.32 -11.2,29.12 -6.16,16.24 -14.56,36.96 -7.84,20.16 -16.8,44.24 -8.96,23.52 -17.92,49.84 z"
       id="path10" />
    <path
       d="M 583.42026,560 V 409.92 q -19.6,-29.68 -38.08,-59.36 -17.92,-29.68 -34.72,-58.8 -16.8,-29.68 -33.6,-59.36 -16.24,-30.24 -31.92,-60.48 h 89.04 q 19.04,42 41.44,84.56 22.4,42 47.6,82.88 16.24,-27.44 31.92,-54.88 15.68,-28 30.24,-56 15.12,-28.56 27.44,-56.56 h 84.56 q -15.68,30.24 -31.92,59.92 -16.24,29.68 -33.6,59.36 -16.8,29.12 -35.28,58.8 -17.92,29.12 -36.96,58.8 V 560 Z"
       id="path12" />
    <path
       d="m 997.40068,567.84 q -52.08,0 -95.76,-22.96 -43.12,-22.96 -68.88,-67.76 -25.76,-45.36 -25.76,-111.44 0,-49.84 15.12,-87.36 15.12,-38.08 42,-63.84 26.88,-25.76 61.04,-38.64 34.16,-12.88 72.24,-12.88 52.64002,0 95.76002,22.96 43.68,22.96 69.44,68.32 25.76,44.8 25.76,111.44 0,66.08 -25.76,111.44 -25.2,44.8 -68.32,67.76 -43.12,22.96 -96.88002,22.96 z m 0,-67.2 q 35.28002,0 59.92002,-16.8 25.2,-16.8 38.64,-47.04 13.44,-30.24 13.44,-71.12 0,-41.44 -13.44,-71.68 -13.44,-30.24 -38.64,-47.04 -24.64,-16.8 -59.92002,-16.8 -34.72,0 -59.92,17.36 -24.64,16.8 -38.08,47.04 -13.44,30.24 -13.44,71.12 0,40.88 13.44,71.12 13.44,30.24 38.08,47.04 25.2,16.8 59.92,16.8 z"
       id="path14" />
  </g>
  <g
     aria-label="Learn!"
     id="subtitle"
     style="font-size:287.149px;font-family:Ubuntu;fill:#172033"
     transform="translate(-105.6,-162.96)">
    <path
       d="m 1248.3602,564.39398 v -198.9942 h 22.3976 v 179.46807 h 93.0363 v 19.52613 z"
       id="path17" />
    <path
       d="m 1458.2663,567.55262 q -26.1306,0 -42.498,-10.05021 -16.0804,-10.05021 -23.8334,-27.5663 -7.4659,-17.51608 -7.4659,-39.9137 0,-26.13055 9.4759,-43.35949 9.476,-17.22893 24.4077,-25.8434 15.2189,-8.61447 31.8735,-8.61447 18.6647,0 32.1607,8.04017 13.7832,7.75302 21.249,24.12051 7.4659,16.08034 7.4659,41.0623 0,2.01004 -0.2871,4.88153 0,2.58434 -0.2872,4.88153 h -103.6608 q 1.1486,25.26911 13.496,39.3394 12.6346,13.78315 39.0523,13.78315 14.6446,0 23.8334,-2.58434 9.4759,-2.87149 13.496,-4.88153 l 3.7329,18.09038 q -4.0201,2.29719 -15.7932,5.45583 -11.486,3.15864 -26.4177,3.15864 z m -50.8254,-89.87761 h 81.8375 q -0.2872,-14.6446 -4.8815,-24.98196 -4.5944,-10.62451 -13.2089,-16.08034 -8.3273,-5.74298 -20.6747,-5.74298 -12.6346,0 -22.1105,6.60443 -9.4759,6.60442 -14.9317,17.22893 -5.1687,10.62451 -6.0302,22.97192 z"
       id="path19" />
    <path
       d="m 1596.6721,567.55262 q -16.0803,0 -28.7149,-4.59438 -12.6345,-4.59439 -19.8133,-14.93175 -7.1787,-10.33736 -7.1787,-27.27914 0,-16.36749 8.0402,-26.41771 8.0401,-10.33736 22.1104,-14.93174 14.3575,-4.59438 32.1607,-4.59438 8.0402,0 16.9418,1.43574 8.9016,1.43575 11.1988,2.58434 v -8.61447 q 0,-9.76306 -2.5843,-18.66468 -2.2972,-9.18876 -9.7631,-14.93174 -7.4659,-5.74298 -22.6848,-5.74298 -15.7931,0 -24.1205,2.29719 -8.3273,2.29719 -12.3474,3.73294 l -2.8715,-18.37753 q 5.1687,-2.29719 15.7932,-4.30724 10.6245,-2.01004 24.982,-2.01004 20.3876,0 32.1607,7.17872 12.0602,7.17873 17.2289,19.81328 5.4558,12.3474 5.4558,28.42774 v 93.3234 q -6.0301,1.43575 -21.5361,4.02009 -15.5061,2.58434 -34.4579,2.58434 z m 3.1586,-18.37753 q 10.0502,0 18.0904,-0.5743 8.0402,-0.86145 13.496,-2.01004 v -49.96391 q -2.8715,-1.43575 -9.763,-2.87149 -6.8916,-1.43575 -17.8033,-1.43575 -9.1887,0 -18.6647,2.01004 -9.4759,2.01005 -16.0803,8.04017 -6.3173,6.03013 -6.3173,18.09039 0,16.08034 10.0502,22.39761 10.0503,6.31728 26.992,6.31728 z"
       id="path21" />
    <path
       d="M 1699.1842,564.39398 V 422.54241 q 7.4659,-3.15864 20.3876,-6.31727 13.2089,-3.44579 31.5864,-3.44579 6.0301,0 11.7731,0.86145 6.0301,0.57429 10.6245,1.72289 4.8815,0.86145 7.1787,1.72289 l -4.3072,18.37753 q -2.5843,-1.14859 -9.7631,-2.29719 -7.1787,-1.43574 -18.3775,-1.43574 -10.9117,0 -18.0904,1.72289 -7.1787,1.43575 -9.4759,2.58434 v 128.35557 z"
       id="path23" />
    <path
       d="M 1808.0136,564.39398 V 420.81952 q 8.9016,-2.29719 23.259,-5.16868 14.3575,-2.87149 34.4579,-2.87149 23.2591,0 36.1808,8.61447 12.9217,8.61446 18.0904,24.12051 5.4558,15.21889 5.4558,35.60646 v 83.27319 h -21.5362 v -77.24306 q 0,-20.38757 -3.7329,-32.44783 -3.733,-12.06025 -12.6346,-17.51608 -8.9016,-5.45583 -24.6948,-5.45583 -12.0602,0 -21.249,1.43574 -9.1888,1.43575 -12.0603,2.29719 v 128.92987 z"
       id="path25" />
    <path
       d="m 1981.7384,502.94411 q -1.1486,-9.76306 -2.2972,-19.23898 -1.1486,-9.47591 -2.01,-19.52612 -0.5743,-10.05022 -1.1486,-20.67473 -0.2871,-10.91166 -0.2871,-23.25906 v -54.84544 h 22.9719 v 54.84544 q 0,12.3474 -0.5743,23.25906 -0.2872,10.62451 -1.1486,20.67473 -0.8615,10.05021 -2.0101,19.52612 -0.8614,9.47592 -2.01,19.23898 z m 5.743,64.89566 q -7.753,0 -12.6345,-4.88153 -4.5944,-4.88153 -4.5944,-12.06026 0,-7.17872 4.5944,-12.06025 4.8815,-4.88153 12.6345,-4.88153 7.4659,0 12.0603,4.88153 4.8815,4.88153 4.8815,12.06025 0,7.17873 -4.8815,12.06026 -4.5944,4.88153 -12.0603,4.88153 z"
       id="path27" />
  </g>
</svg>
