<?xml version="1.0" encoding="UTF-8" standalone="no"?>
<svg
   width="1082.7607"
   height="707.31976"
   viewBox="0 0 1082.7607 707.31976"
   version="1.1"
   id="svg4"
   xmlns="http://www.w3.org/2000/svg"
   xmlns:svg="http://www.w3.org/2000/svg">
  <defs
     id="defs8" />
  <g
     aria-label="AYO"
     id="ayo"
     style="font-weight:700;font-size:560px;font-family:Ubuntu;fill:#173b8f"
     transform="translate(-105.6,-162.96)">
    <path
       d="m 105.6,560 q 29.68,-82.88 54.88,-150.08 25.2,-67.76 49.28,-125.44 24.64,-58.24 50.96,-112.56 h 72.24 q 19.6,40.88 38.08,84 18.48,42.56 36.96,89.04 18.48,46.48 38.08,99.68 20.16,53.2 42,115.36 h -81.76 q -7.28,-22.4 -15.68,-44.24 -7.84,-22.4 -15.12,-44.8 h -159.6 q -7.84,22.4 -16.24,44.8 -7.84,21.84 -14.56,44.24 z M 234.4,409.92 H 356.48 Q 347.52,383.6 338.56,360.08 329.6,336 321.2,315.84 q -7.84,-20.72 -14.56,-36.96 -6.72,-16.8 -11.76,-29.12 -4.48,12.32 -11.2,29.12 -6.16,16.24 -14.56,36.96 -7.84,20.16 -16.8,44.24 -8.96,23.52 -17.92,49.84 z"
       id="path10" />
    <path
       d="M 583.42026,560 V 409.92 q -19.6,-29.68 -38.08,-59.36 -17.92,-29.68 -34.72,-58.8 -16.8,-29.68 -33.6,-59.36 -16.24,-30.24 -31.92,-60.48 h 89.04 q 19.04,42 41.44,84.56 22.4,42 47.6,82.88 16.24,-27.44 31.92,-54.88 15.68,-28 30.24,-56 15.12,-28.56 27.44,-56.56 h 84.56 q -15.68,30.24 -31.92,59.92 -16.24,29.68 -33.6,59.36 -16.8,29.12 -35.28,58.8 -17.92,29.12 -36.96,58.8 V 560 Z"
       id="path12" />
    <path
       d="m 997.40068,567.84 q -52.08,0 -95.76,-22.96 -43.12,-22.96 -68.88,-67.76 -25.76,-45.36 -25.76,-111.44 0,-49.84 15.12,-87.36 15.12,-38.08 42,-63.84 26.88,-25.76 61.04,-38.64 34.16,-12.88 72.24,-12.88 52.64002,0 95.76002,22.96 43.68,22.96 69.44,68.32 25.76,44.8 25.76,111.44 0,66.08 -25.76,111.44 -25.2,44.8 -68.32,67.76 -43.12,22.96 -96.88002,22.96 z m 0,-67.2 q 35.28002,0 59.92002,-16.8 25.2,-16.8 38.64,-47.04 13.44,-30.24 13.44,-71.12 0,-41.44 -13.44,-71.68 -13.44,-30.24 -38.64,-47.04 -24.64,-16.8 -59.92002,-16.8 -34.72,0 -59.92,17.36 -24.64,16.8 -38.08,47.04 -13.44,30.24 -13.44,71.12 0,40.88 13.44,71.12 13.44,30.24 38.08,47.04 25.2,16.8 59.92,16.8 z"
       id="path14" />
  </g>
  <g
     aria-label="Learn!"
     id="subtitle"
     style="font-size:287.149px;font-family:Ubuntu;fill:#172033"
     transform="translate(-105.6,-162.96)">
    <path
       d="m 432.29725,866.83398 v -198.9942 h 22.39762 v 179.46808 h 93.03625 v 19.52612 z"
       id="path17" />
    <path
       d="m 642.20334,869.99262 q -26.13055,0 -42.49804,-10.05021 -16.08034,-10.05021 -23.83336,-27.5663 -7.46587,-17.51608 -7.46587,-39.9137 0,-26.13055 9.47591,-43.35949 9.47592,-17.22893 24.40766,-25.8434 15.21889,-8.61447 31.87353,-8.61447 18.66468,0 32.16068,8.04017 13.78315,7.75302 21.24902,24.12051 7.46587,16.08034 7.46587,41.0623 0,2.01004 -0.28715,4.88153 0,2.58434 -0.28715,4.88153 H 590.80368 q 1.1486,25.26911 13.496,39.33941 12.63455,13.78314 39.05226,13.78314 14.64459,0 23.83336,-2.58434 9.47591,-2.87149 13.496,-4.88153 l 3.73293,18.09038 q -4.02008,2.2972 -15.79319,5.45583 -11.48596,3.15864 -26.4177,3.15864 z m -50.82536,-89.87761 h 81.83744 q -0.28714,-14.6446 -4.88153,-24.98196 -4.59438,-10.62451 -13.20885,-16.08034 -8.32732,-5.74298 -20.67472,-5.74298 -12.63455,0 -22.11047,6.60443 -9.47591,6.60442 -14.93174,17.22893 -5.16868,10.62451 -6.03013,22.97192 z"
       id="path19" />
    <path
       d="m 780.60914,869.99262 q -16.08034,0 -28.71489,-4.59438 -12.63455,-4.59438 -19.81328,-14.93174 -7.17872,-10.33737 -7.17872,-27.27915 0,-16.36749 8.04017,-26.4177 8.04017,-10.33736 22.11047,-14.93175 14.35744,-4.59438 32.16068,-4.59438 8.04017,0 16.94178,1.43574 8.90162,1.43575 11.19881,2.58434 v -8.61446 q 0,-9.76307 -2.58434,-18.66468 -2.29719,-9.18877 -9.76306,-14.93175 -7.46587,-5.74298 -22.68477,-5.74298 -15.79319,0 -24.12051,2.2972 -8.32732,2.29719 -12.3474,3.73293 l -2.87149,-18.37753 q 5.16868,-2.29719 15.79319,-4.30723 10.62451,-2.01005 24.98196,-2.01005 20.38757,0 32.16068,7.17873 12.06025,7.17872 17.22893,19.81327 5.45583,12.34741 5.45583,28.42775 v 93.3234 q -6.03013,1.43574 -21.53617,4.02008 -15.50604,2.58434 -34.45787,2.58434 z m 3.15864,-18.37753 q 10.05021,0 18.09038,-0.5743 8.04017,-0.86144 13.496,-2.01004 v -49.96391 q -2.87149,-1.43575 -9.76306,-2.87149 -6.89158,-1.43575 -17.80324,-1.43575 -9.18876,0 -18.66468,2.01005 -9.47591,2.01004 -16.08034,8.04017 -6.31727,6.03012 -6.31727,18.09038 0,16.08034 10.05021,22.39761 10.05021,6.31728 26.992,6.31728 z"
       id="path21" />
    <path
       d="M 883.12127,866.83398 V 724.98242 q 7.46587,-3.15864 20.38758,-6.31728 13.20885,-3.44579 31.58638,-3.44579 6.03013,0 11.7731,0.86145 6.03013,0.5743 10.62451,1.72289 4.88154,0.86145 7.17873,1.7229 l -4.30724,18.37753 q -2.58434,-1.1486 -9.76306,-2.29719 -7.17872,-1.43575 -18.37753,-1.43575 -10.91166,0 -18.09038,1.72289 -7.17873,1.43575 -9.47592,2.58434 v 128.35557 z"
       id="path23" />
    <path
       d="M 991.95062,866.83398 V 723.25952 q 8.90158,-2.29719 23.25908,-5.16868 14.3574,-2.87149 34.4579,-2.87149 23.259,0 36.1807,8.61447 12.9217,8.61447 18.0904,24.12051 5.4558,15.21889 5.4558,35.60647 v 83.27318 h -21.5361 v -77.24306 q 0,-20.38757 -3.733,-32.44783 -3.7329,-12.06025 -12.6345,-17.51608 -8.9016,-5.45583 -24.6948,-5.45583 -12.0603,0 -21.2491,1.43575 -9.1887,1.43574 -12.0602,2.29719 v 128.92986 z"
       id="path25" />
    <path
       d="m 1165.6755,805.38411 q -1.1486,-9.76306 -2.2972,-19.23897 -1.1486,-9.47592 -2.0101,-19.52613 -0.5743,-10.05021 -1.1486,-20.67472 -0.2871,-10.91166 -0.2871,-23.25907 v -54.84544 h 22.9719 v 54.84544 q 0,12.34741 -0.5743,23.25907 -0.2871,10.62451 -1.1486,20.67472 -0.8614,10.05021 -2.01,19.52613 -0.8615,9.47591 -2.0101,19.23897 z m 5.743,64.89566 q -7.7531,0 -12.6346,-4.88153 -4.5944,-4.88153 -4.5944,-12.06026 0,-7.17872 4.5944,-12.06025 4.8815,-4.88153 12.6346,-4.88153 7.4658,0 12.0602,4.88153 4.8815,4.88153 4.8815,12.06025 0,7.17873 -4.8815,12.06026 -4.5944,4.88153 -12.0602,4.88153 z"
       id="path27" />
  </g>
</svg>
