<?xml version="1.0" encoding="UTF-8" standalone="no"?>
<svg
   width="1817.3501"
   height="404.88"
   viewBox="0 0 1817.3501 404.88"
   version="1.1"
   id="svg4"
   xmlns="http://www.w3.org/2000/svg"
   xmlns:svg="http://www.w3.org/2000/svg">
  <defs
     id="defs8" />
  <g
     aria-label="AYO"
     id="ayo"
     style="font-weight:700;font-size:560px;font-family:Ubuntu;fill:#173b8f"
     transform="translate(-105.6,-162.96)">
    <path
       d="m 105.6,560 q 29.68,-82.88 54.88,-150.08 25.2,-67.76 49.28,-125.44 24.64,-58.24 50.96,-112.56 h 72.24 q 19.6,40.88 38.08,84 18.48,42.56 36.96,89.04 18.48,46.48 38.08,99.68 20.16,53.2 42,115.36 h -81.76 q -7.28,-22.4 -15.68,-44.24 -7.84,-22.4 -15.12,-44.8 h -159.6 q -7.84,22.4 -16.24,44.8 -7.84,21.84 -14.56,44.24 z M 234.4,409.92 H 356.48 Q 347.52,383.6 338.56,360.08 329.6,336 321.2,315.84 q -7.84,-20.72 -14.56,-36.96 -6.72,-16.8 -11.76,-29.12 -4.48,12.32 -11.2,29.12 -6.16,16.24 -14.56,36.96 -7.84,20.16 -16.8,44.24 -8.96,23.52 -17.92,49.84 z"
       id="path10" />
    <path
       d="M 583.42026,560 V 409.92 q -19.6,-29.68 -38.08,-59.36 -17.92,-29.68 -34.72,-58.8 -16.8,-29.68 -33.6,-59.36 -16.24,-30.24 -31.92,-60.48 h 89.04 q 19.04,42 41.44,84.56 22.4,42 47.6,82.88 16.24,-27.44 31.92,-54.88 15.68,-28 30.24,-56 15.12,-28.56 27.44,-56.56 h 84.56 q -15.68,30.24 -31.92,59.92 -16.24,29.68 -33.6,59.36 -16.8,29.12 -35.28,58.8 -17.92,29.12 -36.96,58.8 V 560 Z"
       id="path12" />
    <path
       d="m 997.40068,567.84 q -52.08,0 -95.76,-22.96 -43.12,-22.96 -68.88,-67.76 -25.76,-45.36 -25.76,-111.44 0,-49.84 15.12,-87.36 15.12,-38.08 42,-63.84 26.88,-25.76 61.04,-38.64 34.16,-12.88 72.24,-12.88 52.64002,0 95.76002,22.96 43.68,22.96 69.44,68.32 25.76,44.8 25.76,111.44 0,66.08 -25.76,111.44 -25.2,44.8 -68.32,67.76 -43.12,22.96 -96.88002,22.96 z m 0,-67.2 q 35.28002,0 59.92002,-16.8 25.2,-16.8 38.64,-47.04 13.44,-30.24 13.44,-71.12 0,-41.44 -13.44,-71.68 -13.44,-30.24 -38.64,-47.04 -24.64,-16.8 -59.92002,-16.8 -34.72,0 -59.92,17.36 -24.64,16.8 -38.08,47.04 -13.44,30.24 -13.44,71.12 0,40.88 13.44,71.12 13.44,30.24 38.08,47.04 25.2,16.8 59.92,16.8 z"
       id="path14" />
  </g>
  <g
     aria-label="Belajar!"
     id="subtitle"
     style="font-size:210.218px;font-family:Ubuntu;fill:#172033"
     transform="translate(-105.6,-162.96)">
    <path
       d="m 1284.7281,529.7903 q -5.0452,0 -11.9824,-0.63065 -6.727,-0.42044 -13.2437,-1.26131 -6.5168,-0.84087 -11.1416,-2.10218 V 385.58071 q 5.2555,-1.47153 11.7722,-2.3124 6.727,-0.84087 13.2438,-1.26131 6.7269,-0.42043 12.1926,-0.42043 16.1868,0 29.4305,3.5737 13.454,3.36349 21.4423,11.77221 8.1985,8.19851 8.1985,22.70355 0,11.35178 -5.8861,19.55028 -5.6759,8.19851 -15.5562,11.562 12.6131,3.36349 20.6014,11.77221 7.9883,8.1985 7.9883,24.59551 0,21.02181 -16.6072,31.95315 -16.397,10.72112 -50.4524,10.72112 z m 1.6818,-13.87439 q 12.6131,0 23.5444,-2.3124 11.1416,-2.3124 17.8685,-8.61894 6.727,-6.30654 6.727,-18.07875 0,-16.1868 -10.9313,-21.86268 -10.9314,-5.67589 -29.851,-5.67589 h -29.2203 v 55.28735 q 3.3635,0.42044 9.4598,0.84087 6.0963,0.42044 12.4029,0.42044 z m -21.8627,-70.21284 h 26.4875 q 10.5109,0 18.7094,-2.10218 8.4087,-2.10218 13.2437,-7.56785 4.835,-5.67588 4.835,-15.76635 0,-13.66418 -11.562,-19.12984 -11.3517,-5.67589 -30.0611,-5.67589 -7.1475,0 -12.6131,0.42043 -5.4657,0.21022 -9.0394,0.84088 z"
       id="path17" />
    <path
       d="m 1428.5173,530.84139 q -19.1298,0 -31.1122,-7.35763 -11.7722,-7.35763 -17.4481,-20.18094 -5.4657,-12.8233 -5.4657,-29.22031 0,-19.12984 6.9372,-31.74292 6.9372,-12.61309 17.8685,-18.91963 11.1416,-6.30654 23.3342,-6.30654 13.6642,0 23.5445,5.8861 10.0904,5.67589 15.5561,17.65832 5.4657,11.77221 5.4657,30.06118 0,1.47153 -0.2103,3.57371 0,1.89196 -0.2102,3.57371 h -75.8887 q 0.8409,18.49919 9.8803,28.79987 9.2496,10.09047 28.5896,10.09047 10.7211,0 17.4481,-1.89196 6.9372,-2.10218 9.8803,-3.57371 l 2.7328,13.24374 q -2.9431,1.68174 -11.562,3.99414 -8.4087,2.3124 -19.3401,2.3124 z m -37.2086,-65.79825 h 59.9122 q -0.2102,-10.72112 -3.5737,-18.28897 -3.3635,-7.77807 -9.67,-11.77222 -6.0964,-4.20436 -15.1357,-4.20436 -9.2496,0 -16.1868,4.83502 -6.9372,4.83501 -10.9314,12.61308 -3.7839,7.77807 -4.4146,16.81745 z"
       id="path19" />
    <path
       d="m 1526.2687,530.42095 q -10.0904,-0.42043 -16.8174,-3.36348 -6.5168,-2.94306 -9.67,-9.03938 -3.1533,-6.30654 -3.1533,-16.81745 V 368.13261 l 15.7664,-2.73284 v 134.74978 q 0,10.09047 3.5737,13.03352 3.7839,2.94306 12.613,4.20436 z"
       id="path21" />
    <path
       d="m 1585.34,530.84139 q -11.7722,0 -21.0218,-3.36349 -9.2496,-3.36349 -14.505,-10.93134 -5.2555,-7.56785 -5.2555,-19.97071 0,-11.98243 5.8861,-19.34007 5.8861,-7.56785 16.1868,-10.93134 10.5109,-3.36348 23.5444,-3.36348 5.8861,0 12.4029,1.05109 6.5168,1.05109 8.1985,1.89196 v -6.30654 q 0,-7.14742 -1.892,-13.66418 -1.6817,-6.72698 -7.1474,-10.93134 -5.4656,-4.20436 -16.6072,-4.20436 -11.562,0 -17.6583,1.68175 -6.0963,1.68174 -9.0394,2.73283 l -2.1022,-13.45395 q 3.7839,-1.68175 11.562,-3.15328 7.7781,-1.47152 18.289,-1.47152 14.9255,0 23.5444,5.25545 8.8292,5.25545 12.6131,14.50505 3.9941,9.03937 3.9941,20.81158 v 68.32087 q -4.4145,1.0511 -15.7663,2.94306 -11.3518,1.89196 -25.2262,1.89196 z m 2.3124,-13.45396 q 7.3576,0 13.2437,-0.42043 5.8862,-0.63066 9.8803,-1.47153 v -36.57794 q -2.1022,-1.05109 -7.1474,-2.10218 -5.0452,-1.05109 -13.0335,-1.05109 -6.727,0 -13.6642,1.47152 -6.9372,1.47153 -11.7722,5.88611 -4.6248,4.41458 -4.6248,13.24374 0,11.77221 7.3576,16.39701 7.3576,4.62479 19.7605,4.62479 z"
       id="path23" />
    <path
       d="m 1641.258,567.83977 q -2.3124,0 -6.0963,-0.84087 -3.784,-0.63066 -5.8861,-1.47153 l 2.1021,-12.61308 q 1.6818,0.42043 4.2044,0.84087 2.5226,0.42044 5.0452,0.42044 7.9883,0 12.1927,-2.94306 4.4146,-2.94305 5.8861,-8.82916 1.6817,-5.8861 1.6817,-14.71526 V 419.63603 h 15.7664 v 107.42144 q 0,13.66417 -3.5737,22.70355 -3.5737,9.24959 -11.3518,13.66417 -7.5678,4.41458 -19.9707,4.41458 z m 27.1181,-171.53794 q -4.6248,0 -7.9883,-3.15327 -3.1532,-3.15327 -3.1532,-8.40872 0,-5.04524 3.1532,-8.19851 3.3635,-3.15327 7.9883,-3.15327 4.6248,0 7.7781,3.15327 3.3635,3.15327 3.3635,8.19851 0,5.25545 -3.3635,8.40872 -3.1533,3.15327 -7.7781,3.15327 z"
       id="path25" />
    <path
       d="m 1744.4751,530.84139 q -11.7722,0 -21.0218,-3.36349 -9.2496,-3.36349 -14.5051,-10.93134 -5.2554,-7.56785 -5.2554,-19.97071 0,-11.98243 5.8861,-19.34007 5.8861,-7.56785 16.1868,-10.93134 10.5109,-3.36348 23.5444,-3.36348 5.8861,0 12.4029,1.05109 6.5167,1.05109 8.1985,1.89196 v -6.30654 q 0,-7.14742 -1.892,-13.66418 -1.6817,-6.72698 -7.1474,-10.93134 -5.4657,-4.20436 -16.6072,-4.20436 -11.562,0 -17.6584,1.68175 -6.0963,1.68174 -9.0393,2.73283 l -2.1022,-13.45395 q 3.7839,-1.68175 11.562,-3.15328 7.7781,-1.47152 18.289,-1.47152 14.9254,0 23.5444,5.25545 8.8291,5.25545 12.6131,14.50505 3.9941,9.03937 3.9941,20.81158 v 68.32087 q -4.4146,1.0511 -15.7663,2.94306 -11.3518,1.89196 -25.2262,1.89196 z m 2.3124,-13.45396 q 7.3576,0 13.2437,-0.42043 5.8861,-0.63066 9.8803,-1.47153 v -36.57794 q -2.1022,-1.05109 -7.1474,-2.10218 -5.0453,-1.05109 -13.0336,-1.05109 -6.7269,0 -13.6641,1.47152 -6.9372,1.47153 -11.7723,5.88611 -4.6247,4.41458 -4.6247,13.24374 0,11.77221 7.3576,16.39701 7.3576,4.62479 19.7605,4.62479 z"
       id="path27" />
    <path
       d="M 1819.5229,528.52899 V 424.68127 q 5.4657,-2.3124 14.9255,-4.6248 9.6701,-2.52262 23.124,-2.52262 4.4146,0 8.619,0.63066 4.4145,0.42043 7.778,1.26131 3.5737,0.63065 5.2555,1.26131 l -3.1533,13.45395 q -1.892,-0.84087 -7.1474,-1.68174 -5.2555,-1.05109 -13.454,-1.05109 -7.9883,0 -13.2437,1.2613 -5.2555,1.0511 -6.9372,1.89197 v 93.96747 z"
       id="path29" />
    <path
       d="m 1906.3429,483.54233 q -0.8409,-7.14742 -1.6817,-14.08461 -0.8409,-6.9372 -1.4716,-14.29483 -0.4204,-7.35763 -0.8408,-15.1357 -0.2103,-7.98829 -0.2103,-17.02767 v -40.15165 h 16.8175 v 40.15165 q 0,9.03938 -0.4205,17.02767 -0.2102,7.77807 -0.8408,15.1357 -0.6307,7.35763 -1.4715,14.29483 -0.6307,6.93719 -1.4716,14.08461 z m 4.2044,47.50928 q -5.6759,0 -9.2496,-3.57371 -3.3635,-3.57371 -3.3635,-8.82916 0,-5.25545 3.3635,-8.82916 3.5737,-3.5737 9.2496,-3.5737 5.4656,0 8.8291,3.5737 3.5737,3.57371 3.5737,8.82916 0,5.25545 -3.5737,8.82916 -3.3635,3.57371 -8.8291,3.57371 z"
       id="path31" />
  </g>
</svg>
