<?xml version="1.0" encoding="UTF-8" standalone="no"?>
<svg
   width="1082.7607"
   height="707.31976"
   viewBox="0 0 1082.7607 707.31976"
   version="1.1"
   id="svg4"
   xmlns="http://www.w3.org/2000/svg"
   xmlns:svg="http://www.w3.org/2000/svg">
  <defs
     id="defs8" />
  <g
     aria-label="AYO"
     id="ayo"
     style="font-weight:700;font-size:560px;font-family:Ubuntu;fill:#173b8f"
     transform="translate(-105.6,-162.96)">
    <path
       d="m 105.6,560 q 29.68,-82.88 54.88,-150.08 25.2,-67.76 49.28,-125.44 24.64,-58.24 50.96,-112.56 h 72.24 q 19.6,40.88 38.08,84 18.48,42.56 36.96,89.04 18.48,46.48 38.08,99.68 20.16,53.2 42,115.36 h -81.76 q -7.28,-22.4 -15.68,-44.24 -7.84,-22.4 -15.12,-44.8 h -159.6 q -7.84,22.4 -16.24,44.8 -7.84,21.84 -14.56,44.24 z M 234.4,409.92 H 356.48 Q 347.52,383.6 338.56,360.08 329.6,336 321.2,315.84 q -7.84,-20.72 -14.56,-36.96 -6.72,-16.8 -11.76,-29.12 -4.48,12.32 -11.2,29.12 -6.16,16.24 -14.56,36.96 -7.84,20.16 -16.8,44.24 -8.96,23.52 -17.92,49.84 z"
       id="path10" />
    <path
       d="M 583.42026,560 V 409.92 q -19.6,-29.68 -38.08,-59.36 -17.92,-29.68 -34.72,-58.8 -16.8,-29.68 -33.6,-59.36 -16.24,-30.24 -31.92,-60.48 h 89.04 q 19.04,42 41.44,84.56 22.4,42 47.6,82.88 16.24,-27.44 31.92,-54.88 15.68,-28 30.24,-56 15.12,-28.56 27.44,-56.56 h 84.56 q -15.68,30.24 -31.92,59.92 -16.24,29.68 -33.6,59.36 -16.8,29.12 -35.28,58.8 -17.92,29.12 -36.96,58.8 V 560 Z"
       id="path12" />
    <path
       d="m 997.40068,567.84 q -52.08,0 -95.76,-22.96 -43.12,-22.96 -68.88,-67.76 -25.76,-45.36 -25.76,-111.44 0,-49.84 15.12,-87.36 15.12,-38.08 42,-63.84 26.88,-25.76 61.04,-38.64 34.16,-12.88 72.24,-12.88 52.64002,0 95.76002,22.96 43.68,22.96 69.44,68.32 25.76,44.8 25.76,111.44 0,66.08 -25.76,111.44 -25.2,44.8 -68.32,67.76 -43.12,22.96 -96.88002,22.96 z m 0,-67.2 q 35.28002,0 59.92002,-16.8 25.2,-16.8 38.64,-47.04 13.44,-30.24 13.44,-71.12 0,-41.44 -13.44,-71.68 -13.44,-30.24 -38.64,-47.04 -24.64,-16.8 -59.92002,-16.8 -34.72,0 -59.92,17.36 -24.64,16.8 -38.08,47.04 -13.44,30.24 -13.44,71.12 0,40.88 13.44,71.12 13.44,30.24 38.08,47.04 25.2,16.8 59.92,16.8 z"
       id="path14" />
  </g>
  <g
     aria-label="Belajar!"
     id="subtitle"
     style="font-size:210.218px;font-family:Ubuntu;fill:#172033"
     transform="translate(-105.6,-162.96)">
    <path
       d="m 550.13814,832.2303 q -5.04524,0 -11.98243,-0.63065 -6.72698,-0.42044 -13.24374,-1.26131 -6.51676,-0.84087 -11.14156,-2.10218 V 688.02071 q 5.25545,-1.47153 11.77221,-2.3124 6.72698,-0.84087 13.24374,-1.26131 6.72698,-0.42043 12.19265,-0.42043 16.18679,0 29.43053,3.5737 13.45395,3.36349 21.44224,11.77222 8.19851,8.1985 8.19851,22.70355 0,11.35177 -5.88611,19.55028 -5.67589,8.1985 -15.55614,11.56199 12.61309,3.36349 20.60137,11.77221 7.98829,8.19851 7.98829,24.59552 0,21.0218 -16.60723,31.95314 -16.39701,10.72112 -50.45233,10.72112 z m 1.68174,-13.87439 q 12.61309,0 23.54442,-2.3124 11.14156,-2.3124 17.86854,-8.61894 6.72698,-6.30654 6.72698,-18.07875 0,-16.18679 -10.93134,-21.86268 -10.93134,-5.67589 -29.85097,-5.67589 H 529.9572 v 55.28735 q 3.36349,0.42044 9.45982,0.84087 6.09632,0.42044 12.40286,0.42044 z M 529.9572,748.14308 h 26.48748 q 10.5109,0 18.70941,-2.10218 8.40872,-2.10218 13.24373,-7.56785 4.83502,-5.67589 4.83502,-15.76636 0,-13.66417 -11.56199,-19.12984 -11.35178,-5.67589 -30.06119,-5.67589 -7.14741,0 -12.61308,0.42044 -5.46567,0.21021 -9.03938,0.84087 z"
       id="path17" />
    <path
       d="m 693.92735,833.28139 q -19.12985,0 -31.11228,-7.35763 -11.77221,-7.35763 -17.44809,-20.18093 -5.46567,-12.82331 -5.46567,-29.22031 0,-19.12985 6.93719,-31.74293 6.9372,-12.61309 17.86854,-18.91963 11.14155,-6.30654 23.3342,-6.30654 13.66418,0 23.54443,5.88611 10.09046,5.67588 15.55613,17.65831 5.46567,11.77222 5.46567,30.06119 0,1.47152 -0.21022,3.5737 0,1.89197 -0.21021,3.57371 h -75.88873 q 0.84088,18.49919 9.88025,28.79988 9.2496,10.09046 28.58966,10.09046 10.72112,0 17.4481,-1.89196 6.9372,-2.10218 9.88025,-3.57371 l 2.73283,13.24374 q -2.94305,1.68175 -11.56199,3.99414 -8.40872,2.3124 -19.34006,2.3124 z m -37.2086,-65.79825 h 59.91215 q -0.21022,-10.72112 -3.57371,-18.28897 -3.36349,-7.77807 -9.67003,-11.77221 -6.09632,-4.20437 -15.1357,-4.20437 -9.24959,0 -16.18679,4.83502 -6.9372,4.83502 -10.93134,12.61308 -3.78393,7.77807 -4.41458,16.81745 z"
       id="path19" />
    <path
       d="m 791.67875,832.86096 q -10.09047,-0.42044 -16.81744,-3.36349 -6.51676,-2.94306 -9.67004,-9.03938 -3.15327,-6.30654 -3.15327,-16.81744 V 670.57261 l 15.76636,-2.73283 v 134.74978 q 0,10.09046 3.57371,13.03352 3.78392,2.94305 12.61308,4.20436 z"
       id="path21" />
    <path
       d="m 850.75002,833.28139 q -11.77221,0 -21.02181,-3.36349 -9.24959,-3.36349 -14.50505,-10.93134 -5.25545,-7.56785 -5.25545,-19.97071 0,-11.98243 5.88611,-19.34006 5.8861,-7.56785 16.18679,-10.93134 10.5109,-3.36349 23.54442,-3.36349 5.88611,0 12.40287,1.05109 6.51676,1.05109 8.1985,1.89196 v -6.30654 q 0,-7.14741 -1.89196,-13.66417 -1.68174,-6.72698 -7.14741,-10.93134 -5.46567,-4.20437 -16.60723,-4.20437 -11.56199,0 -17.65832,1.68175 -6.09632,1.68174 -9.03938,2.73283 l -2.10218,-13.45395 q 3.78393,-1.68175 11.562,-3.15327 7.77807,-1.47153 18.28897,-1.47153 14.92548,0 23.54442,5.25545 8.82916,5.25545 12.61309,14.50505 3.99414,9.03938 3.99414,20.81159 v 68.32087 q -4.41458,1.05109 -15.76636,2.94305 -11.35177,1.89196 -25.22616,1.89196 z m 2.3124,-13.45395 q 7.35763,0 13.24373,-0.42044 5.88611,-0.63065 9.88025,-1.47153 v -36.57794 q -2.10218,-1.05109 -7.14741,-2.10218 -5.04524,-1.05109 -13.03352,-1.05109 -6.72698,0 -13.66418,1.47153 -6.93719,1.47152 -11.77221,5.8861 -4.62479,4.41458 -4.62479,13.24374 0,11.77221 7.35763,16.39701 7.35763,4.6248 19.7605,4.6248 z"
       id="path23" />
    <path
       d="m 906.668,870.27977 q -2.3124,0 -6.09632,-0.84087 -3.78393,-0.63065 -5.88611,-1.47153 l 2.10218,-12.61308 q 1.68175,0.42044 4.20436,0.84087 2.52262,0.42044 5.04524,0.42044 7.98828,0 12.19264,-2.94306 4.41458,-2.94305 5.88611,-8.82915 1.68174,-5.88611 1.68174,-14.71527 V 722.07604 h 15.76636 v 107.42143 q 0,13.66417 -3.57371,22.70355 -3.57371,9.24959 -11.35177,13.66417 -7.56785,4.41458 -19.97072,4.41458 z m 27.11813,-171.53794 q -4.6248,0 -7.98829,-3.15327 -3.15327,-3.15327 -3.15327,-8.40872 0,-5.04523 3.15327,-8.19851 3.36349,-3.15327 7.98829,-3.15327 4.6248,0 7.77807,3.15327 3.36349,3.15328 3.36349,8.19851 0,5.25545 -3.36349,8.40872 -3.15327,3.15327 -7.77807,3.15327 z"
       id="path25" />
    <path
       d="m 1009.8851,833.28139 q -11.77222,0 -21.02182,-3.36349 -9.24959,-3.36349 -14.50505,-10.93134 -5.25545,-7.56785 -5.25545,-19.97071 0,-11.98243 5.88611,-19.34006 5.8861,-7.56785 16.18679,-10.93134 10.51092,-3.36349 23.54442,-3.36349 5.8861,0 12.4029,1.05109 6.5167,1.05109 8.1985,1.89196 v -6.30654 q 0,-7.14741 -1.892,-13.66417 -1.6817,-6.72698 -7.1474,-10.93134 -5.4657,-4.20437 -16.6072,-4.20437 -11.56202,0 -17.65835,1.68175 -6.09632,1.68174 -9.03937,2.73283 l -2.10219,-13.45395 q 3.78393,-1.68175 11.562,-3.15327 7.77811,-1.47153 18.28901,-1.47153 14.9254,0 23.5444,5.25545 8.8291,5.25545 12.6131,14.50505 3.9941,9.03938 3.9941,20.81159 v 68.32087 q -4.4146,1.05109 -15.7663,2.94305 -11.3518,1.89196 -25.2262,1.89196 z m 2.3124,-13.45395 q 7.3576,0 13.2437,-0.42044 5.8861,-0.63065 9.8803,-1.47153 v -36.57794 q -2.1022,-1.05109 -7.1474,-2.10218 -5.0453,-1.05109 -13.0336,-1.05109 -6.7269,0 -13.6641,1.47153 -6.93723,1.47152 -11.77225,5.8861 -4.62479,4.41458 -4.62479,13.24374 0,11.77221 7.35763,16.39701 7.35763,4.6248 19.76051,4.6248 z"
       id="path27" />
    <path
       d="M 1084.9329,830.96899 V 727.12127 q 5.4657,-2.3124 14.9255,-4.6248 9.6701,-2.52261 23.124,-2.52261 4.4146,0 8.619,0.63065 4.4145,0.42044 7.778,1.26131 3.5737,0.63065 5.2555,1.26131 l -3.1533,13.45395 q -1.892,-0.84087 -7.1474,-1.68174 -5.2555,-1.05109 -13.454,-1.05109 -7.9883,0 -13.2437,1.26131 -5.2555,1.05109 -6.9372,1.89196 v 93.96747 z"
       id="path29" />
    <path
       d="m 1171.7529,785.98233 q -0.8409,-7.14742 -1.6817,-14.08461 -0.8409,-6.9372 -1.4716,-14.29483 -0.4204,-7.35763 -0.8408,-15.1357 -0.2103,-7.98829 -0.2103,-17.02766 v -40.15165 h 16.8175 v 40.15165 q 0,9.03937 -0.4204,17.02766 -0.2103,7.77807 -0.8409,15.1357 -0.6307,7.35763 -1.4715,14.29483 -0.6307,6.93719 -1.4716,14.08461 z m 4.2044,47.50928 q -5.6759,0 -9.2496,-3.57371 -3.3635,-3.5737 -3.3635,-8.82915 0,-5.25546 3.3635,-8.82916 3.5737,-3.57371 9.2496,-3.57371 5.4656,0 8.8291,3.57371 3.5737,3.5737 3.5737,8.82916 0,5.25545 -3.5737,8.82915 -3.3635,3.57371 -8.8291,3.57371 z"
       id="path31" />
  </g>
</svg>
