<?xml version="1.0" encoding="UTF-8" standalone="no"?>
<svg
   viewBox="9 5529 120 55"
   stroke-linecap="square"
   stroke-miterlimit="10"
   font-family="sans-serif"
   version="1.1"
   id="svg10"
   width="120"
   height="55"
   xmlns="http://www.w3.org/2000/svg"
   xmlns:svg="http://www.w3.org/2000/svg">
  <defs
     id="defs14" />
  <g
     id="g8"
     transform="translate(-0.5,-0.5)">
    <path
       fill-opacity="1"
       color-rendering="auto"
       color-interpolation="auto"
       text-rendering="optimizeLegibility"
       stroke="none"
       stroke-linecap="butt"
       stroke-miterlimit="10"
       shape-rendering="auto"
       stroke-opacity="1"
       fill="#ccccff"
       stroke-dasharray="none"
       stroke-width="1"
       stroke-linejoin="miter"
       stroke-dashoffset="0"
       image-rendering="auto"
       d="m 20,5530 h 99 l 10,10 v 34 l -10,10 H 20 l -10,-10 v -34 z m 0,0"
       fill-rule="evenodd"
       id="path2" />
    <polygon
       fill-opacity="1"
       color-rendering="auto"
       color-interpolation="auto"
       text-rendering="optimizeLegibility"
       stroke="#8e8eb2"
       stroke-linecap="butt"
       stroke-miterlimit="10"
       shape-rendering="auto"
       stroke-opacity="1"
       fill="none"
       stroke-dasharray="none"
       stroke-width="1"
       stroke-linejoin="miter"
       stroke-dashoffset="0"
       image-rendering="auto"
       points="129,5540 129,5574 119,5584 20,5584 10,5574 10,5540 20,5530 119,5530 "
       id="polygon4" />
    <path
       fill-opacity="1"
       color-rendering="auto"
       color-interpolation="auto"
       text-rendering="optimizeLegibility"
       stroke="#000000"
       stroke-linecap="butt"
       stroke-miterlimit="10"
       shape-rendering="auto"
       stroke-opacity="1"
       fill="none"
       stroke-dasharray="none"
       stroke-width="1.2"
       stroke-linejoin="miter"
       stroke-dashoffset="0"
       image-rendering="auto"
       d="m 123,5542.5 c 0,-1.7227 -0.6836,-3.3789 -1.9023,-4.5977 -1.2188,-1.2187 -2.875,-1.9023 -4.5977,-1.9023 -1.7227,0 -3.3789,0.6836 -4.5977,1.9023 -1.2187,1.2188 -1.9023,2.875 -1.9023,4.5977 0,1.7227 0.6836,3.3789 1.9023,4.5977 1.2188,1.2187 2.875,1.9023 4.5977,1.9023 1.7227,0 3.3789,-0.6836 4.5977,-1.9023 1.2187,-1.2188 1.9023,-2.875 1.9023,-4.5977 z m -2.5,0 c 0,-2.2109 -1.7891,-4 -4,-4 -2.2109,0 -4,1.7891 -4,4 0,2.2109 1.7891,4 4,4 2.2109,0 4,-1.7891 4,-4 z m -2.5,0 c 0,-0.8281 -0.6719,-1.5 -1.5,-1.5 -0.8281,0 -1.5,0.6719 -1.5,1.5 0,0.8281 0.6719,1.5 1.5,1.5 0.8281,0 1.5,-0.6719 1.5,-1.5 z m -1,0 c 0,-0.2773 -0.2227,-0.5 -0.5,-0.5 -0.2773,0 -0.5,0.2227 -0.5,0.5 0,0.2773 0.2227,0.5 0.5,0.5 0.2773,0 0.5,-0.2227 0.5,-0.5 z m 0,0"
       fill-rule="evenodd"
       id="path6" />
  </g>
</svg>
