<?xml version="1.0" encoding="UTF-8" standalone="no"?>
<svg
   viewBox="104 5653 18.698057 18.698057"
   stroke-linecap="square"
   stroke-miterlimit="10"
   version="1.1"
   id="svg8"
   width="18.698057"
   height="18.698057"
   xmlns="http://www.w3.org/2000/svg"
   xmlns:svg="http://www.w3.org/2000/svg">
  <defs
     id="defs12" />
  <g
     id="g6"
     transform="translate(-0.39999998,-0.90194193)">
    <path
       fill-opacity="1"
       color-rendering="auto"
       color-interpolation="auto"
       text-rendering="optimizeLegibility"
       stroke="#000000"
       stroke-linecap="butt"
       stroke-miterlimit="10"
       shape-rendering="auto"
       stroke-opacity="1"
       fill="none"
       stroke-dasharray="none"
       stroke-width="1.2"
       stroke-linejoin="miter"
       stroke-dashoffset="0"
       image-rendering="auto"
       d="m 118,5665.5 c 0,-1.7227 -0.6836,-3.3789 -1.9023,-4.5977 -1.2188,-1.2187 -2.875,-1.9023 -4.5977,-1.9023 -1.7227,0 -3.3789,0.6836 -4.5977,1.9023 -1.2187,1.2188 -1.9023,2.875 -1.9023,4.5977 0,1.7227 0.6836,3.3789 1.9023,4.5977 1.2188,1.2187 2.875,1.9023 4.5977,1.9023 1.7227,0 3.3789,-0.6836 4.5977,-1.9023 1.2187,-1.2188 1.9023,-2.875 1.9023,-4.5977 z m -2.5,0 c 0,-2.2109 -1.7891,-4 -4,-4 -2.2109,0 -4,1.7891 -4,4 0,2.2109 1.7891,4 4,4 2.2109,0 4,-1.7891 4,-4 z m -2.5,0 c 0,-0.8281 -0.6719,-1.5 -1.5,-1.5 -0.8281,0 -1.5,0.6719 -1.5,1.5 0,0.8281 0.6719,1.5 1.5,1.5 0.8281,0 1.5,-0.6719 1.5,-1.5 z m -1,0 c 0,-0.2773 -0.2227,-0.5 -0.5,-0.5 -0.2773,0 -0.5,0.2227 -0.5,0.5 0,0.2773 0.2227,0.5 0.5,0.5 0.2773,0 0.5,-0.2227 0.5,-0.5 z m 0,0"
       fill-rule="evenodd"
       id="path2" />
    <path
       fill-opacity="1"
       color-rendering="auto"
       color-interpolation="auto"
       text-rendering="optimizeLegibility"
       stroke="#000000"
       stroke-linecap="butt"
       stroke-miterlimit="10"
       shape-rendering="auto"
       stroke-opacity="1"
       fill="none"
       stroke-dasharray="none"
       stroke-width="1"
       stroke-linejoin="miter"
       stroke-dashoffset="0"
       image-rendering="auto"
       d="m 111,5666 9.5,-9.5 m -2.5,2.5 1,-5 m -1,5 5,-1"
       fill-rule="evenodd"
       id="path4" />
  </g>
</svg>
