<?xml version="1.0" encoding="UTF-8" standalone="no"?>
<svg
   viewBox="107 4693 19 25.207108"
   stroke-linecap="square"
   stroke-miterlimit="10"
   version="1.1"
   id="svg12"
   width="19"
   height="25.207108"
   xmlns="http://www.w3.org/2000/svg"
   xmlns:svg="http://www.w3.org/2000/svg">
  <defs
     id="defs16" />
  <g
     id="g10"
     transform="translate(-0.5,-0.29289322)">
    <polygon
       fill-opacity="1"
       color-rendering="auto"
       color-interpolation="auto"
       text-rendering="optimizeLegibility"
       stroke="#000000"
       stroke-linecap="butt"
       stroke-miterlimit="10"
       shape-rendering="auto"
       stroke-opacity="1"
       fill="none"
       stroke-dasharray="none"
       stroke-width="1"
       stroke-linejoin="miter"
       stroke-dashoffset="0"
       image-rendering="auto"
       points="124,4709 122,4709 121,4707 122,4705 121,4704 119,4705 117,4704 117,4702 115,4702 115,4704 113,4705 111,4704 110,4705 111,4707 110,4709 108,4709 108,4711 110,4711 111,4713 110,4715 111,4716 113,4715 115,4716 115,4718 117,4718 117,4716 119,4715 121,4716 122,4715 121,4713 122,4711 124,4711 "
       id="polygon2" />
    <path
       fill-opacity="1"
       color-rendering="auto"
       color-interpolation="auto"
       text-rendering="optimizeLegibility"
       stroke="#000000"
       stroke-linecap="butt"
       stroke-miterlimit="10"
       shape-rendering="auto"
       stroke-opacity="1"
       fill="none"
       stroke-dasharray="none"
       stroke-width="1"
       stroke-linejoin="miter"
       stroke-dashoffset="0"
       image-rendering="auto"
       d="m 119,4710 c 0,-1.6562 -1.3438,-3 -3,-3 -1.6562,0 -3,1.3438 -3,3 0,1.6562 1.3438,3 3,3 1.6562,0 3,-1.3438 3,-3 z m 0,0"
       fill-rule="evenodd"
       id="path4" />
    <polygon
       fill-opacity="1"
       color-rendering="auto"
       color-interpolation="auto"
       text-rendering="optimizeLegibility"
       stroke="#000000"
       stroke-linecap="butt"
       stroke-miterlimit="10"
       shape-rendering="auto"
       stroke-opacity="1"
       fill="none"
       stroke-dasharray="none"
       stroke-width="1"
       stroke-linejoin="miter"
       stroke-dashoffset="0"
       image-rendering="auto"
       points="126,4698 125,4698 124,4696 124,4695 123,4694 122,4695 120,4695 119,4694 118,4695 118,4696 117,4698 116,4698 116,4700 117,4700 118,4702 118,4703 119,4704 120,4703 122,4703 123,4704 124,4703 124,4702 125,4700 126,4700 "
       id="polygon6" />
    <path
       fill-opacity="1"
       color-rendering="auto"
       color-interpolation="auto"
       text-rendering="optimizeLegibility"
       stroke="#000000"
       stroke-linecap="butt"
       stroke-miterlimit="10"
       shape-rendering="auto"
       stroke-opacity="1"
       fill="none"
       stroke-dasharray="none"
       stroke-width="1"
       stroke-linejoin="miter"
       stroke-dashoffset="0"
       image-rendering="auto"
       d="m 123,4699 c 0,-1.1055 -0.8945,-2 -2,-2 -1.1055,0 -2,0.8945 -2,2 0,1.1055 0.8945,2 2,2 1.1055,0 2,-0.8945 2,-2 z m 0,0"
       fill-rule="evenodd"
       id="path8" />
  </g>
</svg>
