<?xml version="1.0" encoding="UTF-8" standalone="no"?>
<svg
   viewBox="9 249 120 55"
   stroke-linecap="square"
   stroke-miterlimit="10"
   font-family="sans-serif"
   version="1.1"
   id="svg14"
   width="120"
   height="55"
   xmlns="http://www.w3.org/2000/svg"
   xmlns:svg="http://www.w3.org/2000/svg">
  <defs
     id="defs18" />
  <g
     id="g12"
     transform="translate(-0.5,-0.5)">
    <rect
       fill-opacity="1"
       color-rendering="auto"
       color-interpolation="auto"
       text-rendering="optimizeLegibility"
       stroke="none"
       stroke-linecap="butt"
       stroke-miterlimit="10"
       shape-rendering="auto"
       stroke-opacity="1"
       fill="#f5deaa"
       stroke-dasharray="none"
       stroke-width="1"
       stroke-linejoin="miter"
       stroke-dashoffset="0"
       image-rendering="auto"
       x="10"
       y="250"
       width="119"
       rx="10"
       ry="10"
       height="54"
       id="rect2" />
    <rect
       fill-opacity="1"
       color-rendering="auto"
       color-interpolation="auto"
       text-rendering="optimizeLegibility"
       stroke="#ab9b77"
       stroke-linecap="butt"
       stroke-miterlimit="10"
       shape-rendering="auto"
       stroke-opacity="1"
       fill="none"
       stroke-dasharray="none"
       stroke-width="1"
       stroke-linejoin="miter"
       stroke-dashoffset="0"
       image-rendering="auto"
       x="10"
       y="250"
       width="119"
       rx="10"
       ry="10"
       height="54"
       id="rect4" />
    <path
       fill-opacity="1"
       color-rendering="auto"
       color-interpolation="auto"
       text-rendering="optimizeLegibility"
       stroke="none"
       stroke-linecap="butt"
       stroke-miterlimit="10"
       shape-rendering="auto"
       stroke-opacity="1"
       fill="#000000"
       stroke-dasharray="none"
       stroke-width="1"
       stroke-linejoin="miter"
       stroke-dashoffset="0"
       image-rendering="auto"
       d="m 107.6016,262 6,1 -3,5.1992"
       fill-rule="evenodd"
       id="path6" />
    <path
       fill-opacity="1"
       color-rendering="auto"
       color-interpolation="auto"
       text-rendering="optimizeLegibility"
       stroke="#000000"
       stroke-linecap="butt"
       stroke-miterlimit="10"
       shape-rendering="auto"
       stroke-opacity="1"
       fill="none"
       stroke-dasharray="none"
       stroke-width="2"
       stroke-linejoin="miter"
       stroke-dashoffset="0"
       image-rendering="auto"
       d="m 110.5,265 c -2.4258,0 -4.5039,1.7422 -4.9258,4.1328"
       fill-rule="evenodd"
       id="path8" />
    <path
       fill-opacity="1"
       color-rendering="auto"
       color-interpolation="auto"
       text-rendering="optimizeLegibility"
       stroke="#000000"
       stroke-linecap="butt"
       stroke-miterlimit="10"
       shape-rendering="auto"
       stroke-opacity="1"
       fill="none"
       stroke-dasharray="none"
       stroke-width="1.2"
       stroke-linejoin="miter"
       stroke-dashoffset="0"
       image-rendering="auto"
       d="m 126,259.5 c 0,-1.7227 -0.6836,-3.3789 -1.9023,-4.5977 C 122.8789,253.6836 121.2227,253 119.5,253 c -1.7227,0 -3.3789,0.6836 -4.5977,1.9023 -1.2187,1.2188 -1.9023,2.875 -1.9023,4.5977 0,1.7227 0.6836,3.3789 1.9023,4.5977 1.2188,1.2187 2.875,1.9023 4.5977,1.9023 1.7227,0 3.3789,-0.6836 4.5977,-1.9023 C 125.3164,262.8789 126,261.2227 126,259.5 Z m -2.5,0 c 0,-2.2109 -1.7891,-4 -4,-4 -2.2109,0 -4,1.7891 -4,4 0,2.2109 1.7891,4 4,4 2.2109,0 4,-1.7891 4,-4 z m -2.5,0 c 0,-0.8281 -0.6719,-1.5 -1.5,-1.5 -0.8281,0 -1.5,0.6719 -1.5,1.5 0,0.8281 0.6719,1.5 1.5,1.5 0.8281,0 1.5,-0.6719 1.5,-1.5 z m -1,0 c 0,-0.2773 -0.2227,-0.5 -0.5,-0.5 -0.2773,0 -0.5,0.2227 -0.5,0.5 0,0.2773 0.2227,0.5 0.5,0.5 0.2773,0 0.5,-0.2227 0.5,-0.5 z m 0,0"
       fill-rule="evenodd"
       id="path10" />
  </g>
</svg>
