<?xml version="1.0" encoding="UTF-8" standalone="no"?>
<svg
   viewBox="9 3369 120 55"
   stroke-linecap="square"
   stroke-miterlimit="10"
   font-family="sans-serif"
   version="1.1"
   id="svg10"
   width="120"
   height="55"
   xmlns="http://www.w3.org/2000/svg"
   xmlns:svg="http://www.w3.org/2000/svg">
  <defs
     id="defs14" />
  <g
     id="g8"
     transform="translate(-0.5,-0.5)">
    <rect
       fill-opacity="1"
       color-rendering="auto"
       color-interpolation="auto"
       text-rendering="optimizeLegibility"
       stroke="none"
       stroke-linecap="butt"
       stroke-miterlimit="10"
       shape-rendering="auto"
       stroke-opacity="1"
       fill="#c9e7b7"
       stroke-dasharray="none"
       stroke-width="1"
       stroke-linejoin="miter"
       stroke-dashoffset="0"
       image-rendering="auto"
       x="10"
       y="3370"
       width="119"
       height="54"
       id="rect2" />
    <rect
       fill-opacity="1"
       color-rendering="auto"
       color-interpolation="auto"
       text-rendering="optimizeLegibility"
       stroke="#8ca180"
       stroke-linecap="butt"
       stroke-miterlimit="10"
       shape-rendering="auto"
       stroke-opacity="1"
       fill="none"
       stroke-dasharray="none"
       stroke-width="1"
       stroke-linejoin="miter"
       stroke-dashoffset="0"
       image-rendering="auto"
       x="10"
       y="3370"
       width="119"
       height="54"
       id="rect4" />
    <path
       fill-opacity="1"
       color-rendering="auto"
       color-interpolation="auto"
       text-rendering="optimizeLegibility"
       stroke="#000000"
       stroke-linecap="butt"
       stroke-miterlimit="10"
       shape-rendering="auto"
       stroke-opacity="1"
       fill="none"
       stroke-dasharray="none"
       stroke-width="1"
       stroke-linejoin="miter"
       stroke-dashoffset="0"
       image-rendering="auto"
       d="m 118.5,3378 c -3.0391,0 -5.5,2.4609 -5.5,5.5 0,3.0391 2.4609,5.5 5.5,5.5 3.0391,0 5.5,-2.4609 5.5,-5.5 0,-3.0391 -2.4609,-5.5 -5.5,-5.5 z m 4.75,8.2617 c 1.4805,-0.8555 2.4805,-2.3476 2.7031,-4.0429 0.2227,-1.6954 -0.3554,-3.3985 -1.5625,-4.6094 -1.2109,-1.2071 -2.914,-1.7852 -4.6094,-1.5625 -1.6953,0.2226 -3.1874,1.2226 -4.0429,2.7031"
       fill-rule="evenodd"
       id="path6" />
  </g>
</svg>
