<?xml version="1.0" encoding="UTF-8" standalone="no"?>
<svg
   viewBox="9 3849 120 55"
   stroke-linecap="square"
   stroke-miterlimit="10"
   font-family="sans-serif"
   version="1.1"
   id="svg10"
   width="120"
   height="55"
   xmlns="http://www.w3.org/2000/svg"
   xmlns:svg="http://www.w3.org/2000/svg">
  <defs
     id="defs14" />
  <g
     id="g8"
     transform="translate(-0.5,-0.5)">
    <rect
       fill-opacity="1"
       color-rendering="auto"
       color-interpolation="auto"
       text-rendering="optimizeLegibility"
       stroke="none"
       stroke-linecap="butt"
       stroke-miterlimit="10"
       shape-rendering="auto"
       stroke-opacity="1"
       fill="#c9e7b7"
       stroke-dasharray="none"
       stroke-width="1.5"
       stroke-linejoin="miter"
       stroke-dashoffset="0"
       image-rendering="auto"
       x="10"
       y="3850"
       width="119"
       height="54"
       id="rect2" />
    <rect
       fill-opacity="1"
       color-rendering="auto"
       color-interpolation="auto"
       text-rendering="optimizeLegibility"
       stroke="#8ca180"
       stroke-linecap="butt"
       stroke-miterlimit="10"
       shape-rendering="auto"
       stroke-opacity="1"
       fill="none"
       stroke-dasharray="none"
       stroke-width="1"
       stroke-linejoin="miter"
       stroke-dashoffset="0"
       image-rendering="auto"
       x="10"
       y="3850"
       width="119"
       height="54"
       id="rect4" />
    <path
       fill-opacity="1"
       color-rendering="auto"
       color-interpolation="auto"
       text-rendering="optimizeLegibility"
       stroke="#000000"
       stroke-linecap="butt"
       stroke-miterlimit="10"
       shape-rendering="auto"
       stroke-opacity="1"
       fill="none"
       stroke-dasharray="none"
       stroke-width="1"
       stroke-linejoin="miter"
       stroke-dashoffset="0"
       image-rendering="auto"
       d="m 116,3866.5 c 0,-1.3789 -1.1211,-2.5 -2.5,-2.5 -1.3789,0 -2.5,1.1211 -2.5,2.5 0,1.3789 1.1211,2.5 2.5,2.5 1.3789,0 2.5,-1.1211 2.5,-2.5 z m 2,-8 c 0,-1.3789 -1.1211,-2.5 -2.5,-2.5 -1.3789,0 -2.5,1.1211 -2.5,2.5 0,1.3789 1.1211,2.5 2.5,2.5 1.3789,0 2.5,-1.1211 2.5,-2.5 z m 8,0 c 0,-1.3789 -1.1211,-2.5 -2.5,-2.5 -1.3789,0 -2.5,1.1211 -2.5,2.5 0,1.3789 1.1211,2.5 2.5,2.5 1.3789,0 2.5,-1.1211 2.5,-2.5 z m -2,8 c 0,-1.3789 -1.1211,-2.5 -2.5,-2.5 -1.3789,0 -2.5,1.1211 -2.5,2.5 0,1.3789 1.1211,2.5 2.5,2.5 1.3789,0 2.5,-1.1211 2.5,-2.5 z m -10,-2.5 1,-3 m 7,3 1,-3 m -7,5.5 h 3 m -1,-8 h 3"
       fill-rule="evenodd"
       id="path6" />
  </g>
</svg>
